<svg width="81" height="78" viewBox="0 0 81 78" fill="none" xmlns="http://www.w3.org/2000/svg">
<path d="M8.09987 78H47.0602C49.3974 78.0013 51.707 77.4893 53.8303 76.4992C55.9536 75.5092 57.84 74.0646 59.3599 72.265L80.0227 47.8304C80.4553 47.3197 80.7574 46.7089 80.9024 46.0519C81.0473 45.3949 81.0306 44.7118 80.8538 44.0629C80.6769 43.4139 80.3454 42.8191 79.8883 42.3306C79.4312 41.8422 78.8626 41.4752 78.2326 41.262L70.2623 38.569C68.336 37.9343 66.285 37.7906 64.2908 38.1508C62.2967 38.511 60.4209 39.3638 58.8293 40.6339L45.9303 51.09L43.4315 46.02C42.0928 43.2871 40.0259 40.9887 37.4649 39.3852C34.9038 37.7817 31.951 36.9372 28.9408 36.9474H8.09987C3.63279 36.9474 0 40.6298 0 45.1579V69.7895C0 74.3176 3.63279 78 8.09987 78ZM8.09987 45.1579H28.9408C32.0309 45.1579 34.8051 46.8944 36.1862 49.6942L37.9965 53.3684H20.2497V61.579H44.606C45.2291 61.5706 45.8418 61.416 46.3961 61.1274L46.4082 61.1233L46.4244 61.1151H46.4365L46.4447 61.111H46.4608L46.4649 61.1069C46.5014 61.1192 46.477 61.1028 46.477 61.1028C46.5175 61.1028 46.4851 61.0986 46.4851 61.0986H46.4892L46.4973 61.0945L46.5094 61.0904L46.5175 61.0863L46.5256 61.0822L46.5378 61.0781L46.5459 61.074C46.558 61.074 46.5499 61.0699 46.554 61.0699L46.5661 61.0617L46.5742 61.0576L46.5823 61.0535L46.5945 61.0494L46.6026 61.0453H46.6067L46.6147 61.0412H46.6188L46.6269 61.0371L46.635 61.033C46.6714 61.0289 46.6471 61.0288 46.6471 61.0288L46.6552 61.0247C46.8113 60.9293 46.9602 60.8222 47.1007 60.7045L63.8918 47.0874C64.9529 46.2335 66.4149 45.9667 67.6987 46.4018L69.9545 47.1654L53.2161 66.9651C52.4462 67.8513 51.4992 68.5614 50.4378 69.0483C49.3765 69.5353 48.2252 69.7879 47.0602 69.7895H8.09987V45.1579ZM56.6991 3.86129e-05H56.6302C55.9701 0.00824914 52.556 0.160144 48.5992 2.89425C44.7477 0.234038 41.4146 0.0205646 40.6289 0.00414358L40.5074 3.86129e-05H40.4912C37.2472 3.86129e-05 34.1936 1.28499 31.9094 3.60446C29.6172 5.93214 28.3495 9.0234 28.3495 12.3158C28.3495 15.6082 29.6172 18.6995 31.8365 20.9533L45.663 35.6748C46.0434 36.0751 46.4996 36.3934 47.0043 36.6107C47.509 36.828 48.0517 36.9398 48.6001 36.9395C49.1484 36.9391 49.691 36.8265 50.1954 36.6085C50.6998 36.3905 51.1556 36.0715 51.5354 35.6707L65.289 21.0231C67.5853 18.6995 68.8489 15.6082 68.8489 12.3158C68.8489 9.0234 67.5813 5.93214 65.293 3.60856C64.1685 2.46133 62.8306 1.55166 61.3568 0.932242C59.883 0.312826 58.3026 -0.00402587 56.7072 3.86129e-05H56.6991ZM60.749 12.3158C60.749 13.4119 60.3278 14.4423 59.4895 15.2921L48.5992 26.8895L37.636 15.2182C36.8706 14.4423 36.4494 13.4119 36.4494 12.3158C36.4494 11.2197 36.8706 10.1893 37.6401 9.4093C38.3725 8.65416 39.3697 8.22325 40.4143 8.21056C40.5155 8.21467 42.4474 8.34193 44.7356 10.2016C45.0636 10.4685 45.3957 10.7722 45.7359 11.113L48.5992 14.0154L51.4625 11.113C51.8027 10.7722 52.1348 10.4685 52.4629 10.2016C54.6053 8.45688 56.4156 8.2393 56.7234 8.21466C57.2512 8.21457 57.7739 8.32045 58.2612 8.52619C58.7484 8.73194 59.1907 9.03348 59.5624 9.4134C60.3278 10.1893 60.749 11.2197 60.749 12.3158Z" fill="black"/>
</svg>
