<svg width="481" height="110" viewBox="0 0 481 110" fill="none" xmlns="http://www.w3.org/2000/svg">
<path d="M24.905 42.7755V52.9755H49.725V68.1055H24.905V87.1455H4.845V27.6455H53.21V42.7755H24.905ZM58.1221 40.6505H77.3321V87.1455H58.1221V40.6505ZM67.7271 36.9105C64.2704 36.9105 61.4654 36.0038 59.3121 34.1905C57.2154 32.3205 56.1671 29.9688 56.1671 27.1355C56.1671 24.3022 57.2154 21.9788 59.3121 20.1655C61.4654 18.2955 64.2704 17.3605 67.7271 17.3605C71.2404 17.3605 74.0454 18.2388 76.1421 19.9955C78.2387 21.7522 79.2871 24.0188 79.2871 26.7955C79.2871 29.7422 78.2387 32.1788 76.1421 34.1055C74.0454 35.9755 71.2404 36.9105 67.7271 36.9105ZM118.147 39.8005C123.87 39.8005 128.46 41.5288 131.917 44.9855C135.43 48.4422 137.187 53.6555 137.187 60.6255V87.1455H117.977V63.9405C117.977 58.6138 116.078 55.9505 112.282 55.9505C110.128 55.9505 108.372 56.7155 107.012 58.2455C105.708 59.7188 105.057 62.0705 105.057 65.3005V87.1455H85.8467V40.6505H104.122V45.2405C105.935 43.4272 108.032 42.0672 110.412 41.1605C112.792 40.2538 115.37 39.8005 118.147 39.8005ZM197.784 24.0755V87.1455H179.509V83.3205C176.733 86.4372 172.483 87.9955 166.759 87.9955C162.679 87.9955 158.911 87.0322 155.454 85.1055C152.054 83.1222 149.334 80.2888 147.294 76.6055C145.311 72.9222 144.319 68.6722 144.319 63.8555C144.319 59.0388 145.311 54.8172 147.294 51.1905C149.334 47.5072 152.054 44.7022 155.454 42.7755C158.911 40.7922 162.679 39.8005 166.759 39.8005C171.916 39.8005 175.854 41.1322 178.574 43.7955V24.0755H197.784ZM171.349 73.0355C173.559 73.0355 175.373 72.2422 176.789 70.6555C178.206 69.0122 178.914 66.7455 178.914 63.8555C178.914 60.9655 178.206 58.7272 176.789 57.1405C175.373 55.5538 173.559 54.7605 171.349 54.7605C169.139 54.7605 167.326 55.5538 165.909 57.1405C164.493 58.7272 163.784 60.9655 163.784 63.8555C163.784 66.7455 164.493 69.0122 165.909 70.6555C167.326 72.2422 169.139 73.0355 171.349 73.0355Z" fill="#654D41"/>
<path d="M235.531 27.6455C241.028 27.6455 245.816 28.5522 249.896 30.3655C253.976 32.1788 257.121 34.7855 259.331 38.1855C261.541 41.5855 262.646 45.5522 262.646 50.0855C262.646 54.6188 261.541 58.5855 259.331 61.9855C257.121 65.3855 253.976 67.9922 249.896 69.8055C245.816 71.6188 241.028 72.5255 235.531 72.5255H226.946V87.1455H206.886V27.6455H235.531ZM234.256 57.0555C236.976 57.0555 239.016 56.4605 240.376 55.2705C241.736 54.0238 242.416 52.2955 242.416 50.0855C242.416 47.8755 241.736 46.1755 240.376 44.9855C239.016 43.7388 236.976 43.1155 234.256 43.1155H226.946V57.0555H234.256ZM318.1 63.8555C318.1 64.1388 318.015 65.6405 317.845 68.3605H285.545C286.225 70.1172 287.358 71.4772 288.945 72.4405C290.532 73.3472 292.515 73.8005 294.895 73.8005C296.935 73.8005 298.635 73.5455 299.995 73.0355C301.412 72.5255 302.942 71.6472 304.585 70.4005L314.615 80.5155C310.082 85.5022 303.31 87.9955 294.3 87.9955C288.69 87.9955 283.76 86.9755 279.51 84.9355C275.26 82.8388 271.973 79.9488 269.65 76.2655C267.327 72.5822 266.165 68.4455 266.165 63.8555C266.165 59.2088 267.298 55.0722 269.565 51.4455C271.888 47.7622 275.033 44.9005 279 42.8605C283.023 40.8205 287.528 39.8005 292.515 39.8005C297.218 39.8005 301.497 40.7355 305.35 42.6055C309.26 44.4755 312.348 47.2238 314.615 50.8505C316.938 54.4772 318.1 58.8122 318.1 63.8555ZM292.685 52.8905C290.702 52.8905 289.058 53.4288 287.755 54.5055C286.452 55.5822 285.602 57.1122 285.205 59.0955H300.165C299.768 57.1688 298.918 55.6672 297.615 54.5905C296.312 53.4572 294.668 52.8905 292.685 52.8905ZM358.417 85.5305C355.527 87.1738 351.589 87.9955 346.602 87.9955C340.085 87.9955 335.07 86.4372 331.557 83.3205C328.044 80.1472 326.287 75.4155 326.287 69.1255V57.2255H319.912V43.2005H326.287V30.1955H345.497V43.2005H355.017V57.2255H345.497V68.9555C345.497 70.3722 345.865 71.4772 346.602 72.2705C347.339 73.0638 348.302 73.4605 349.492 73.4605C351.135 73.4605 352.58 73.0355 353.827 72.1855L358.417 85.5305Z" fill="#C98822"/>
<path d="M471.812 87.6736L455.521 71.437C461.537 63.4903 464.361 53.5821 463.424 43.6569C462.47 33.548 457.685 24.1821 450.046 17.4659C442.407 10.7496 432.487 7.18777 422.305 7.50484C412.124 7.82191 402.447 11.9941 395.243 19.1727C388.039 26.3513 383.851 35.9967 383.531 46.1452C383.212 56.2938 386.785 66.1819 393.524 73.7964C400.262 81.4109 409.658 86.1794 419.8 87.1318C429.758 88.067 439.7 85.2534 447.675 79.2566L463.969 95.4958C463.97 95.4964 463.97 95.497 463.971 95.4976C464.484 96.0171 465.095 96.4301 465.769 96.7131C466.444 96.9965 467.168 97.1438 467.9 97.1468C468.632 97.1498 469.357 97.0083 470.034 96.7304C470.711 96.4526 471.326 96.0439 471.844 95.5278C472.362 95.0117 472.772 94.3984 473.051 93.7232C473.33 93.048 473.472 92.3244 473.469 91.594C473.466 90.8637 473.318 90.1413 473.034 89.4684C472.75 88.7966 472.336 88.1874 471.815 87.6758C471.814 87.6751 471.813 87.6743 471.812 87.6736ZM394.694 47.4399C394.694 41.7432 396.389 36.1743 399.565 31.4374C402.741 26.7002 407.255 23.0077 412.537 20.8271C417.819 18.6466 423.632 18.076 429.24 19.1877C434.847 20.2993 439.998 23.0432 444.04 27.0721C448.083 31.1009 450.836 36.2336 451.951 41.8211C453.066 47.4086 452.494 53.2003 450.306 58.4637C448.118 63.7272 444.414 68.2263 439.66 71.3918C434.907 74.5573 429.318 76.247 423.601 76.2472C415.936 76.2386 408.588 73.2003 403.169 67.7995C397.75 62.3988 394.702 55.0768 394.694 47.4399Z" fill="#654D41" stroke="#654D41" stroke-width="1.25"/>
<g clip-path="url(#clip0_1102:554)">
<path d="M429.302 39.6441L429.302 39.6442C430.039 41.8847 432.153 43.2146 434.077 42.4658C435.985 41.7235 436.842 39.2652 436.107 37.0273L436.107 37.0273C435.37 34.7868 433.256 33.4568 431.331 34.2057C429.424 34.9479 428.567 37.4062 429.302 39.6441ZM422.274 45.2583C421.203 46.0006 420.326 47.2199 419.655 48.6705C418.982 50.124 418.507 51.8282 418.249 53.564C417.991 55.3 417.95 57.0756 418.15 58.6736C418.349 60.268 418.792 61.7049 419.519 62.7468C420.186 63.7021 421.099 64.2244 422.159 64.2823C423.21 64.3397 424.374 63.9402 425.558 63.1196C426.85 62.2246 427.688 61.151 428.445 60.1476C428.484 60.0953 428.523 60.0433 428.562 59.9915C429.277 59.0417 429.926 58.1796 430.844 57.5438C431.775 56.899 432.823 56.5892 433.972 56.2495C434.029 56.2327 434.086 56.2158 434.144 56.1988C435.351 55.841 436.649 55.4349 437.93 54.5474C439.114 53.7269 439.895 52.7786 440.207 51.7773C440.522 50.7664 440.349 49.7314 439.682 48.7761C438.955 47.7342 437.758 46.82 436.328 46.0781C434.895 45.3344 433.21 44.7548 431.488 44.391C429.765 44.0273 427.997 43.8778 426.395 44C424.797 44.1219 423.345 44.5161 422.274 45.2583ZM414.545 49.8688C412.696 48.4017 410.085 48.3465 408.723 49.8702C407.348 51.4074 407.863 53.8451 409.713 55.314C411.562 56.781 414.173 56.8363 415.535 55.3125C416.91 53.7753 416.395 51.3377 414.545 49.8688ZM418.192 46.1379C418.908 45.2992 419.057 44.1528 418.758 43.0053C418.459 41.8572 417.71 40.6859 416.591 39.7511C415.473 38.8162 414.181 38.2815 412.988 38.182C411.796 38.0825 410.68 38.4182 409.964 39.2564C409.248 40.0952 409.099 41.2415 409.398 42.3891C409.697 43.5371 410.446 44.7084 411.565 45.6432C412.683 46.5781 413.975 47.1128 415.168 47.2124C416.36 47.3119 417.476 46.9762 418.192 46.1379ZM424.523 41.7511C425.561 41.3742 426.265 40.4484 426.587 39.3004C426.909 38.1514 426.856 36.7583 426.366 35.3877C425.876 34.0173 425.036 32.9093 424.06 32.2303C423.085 31.5516 421.955 31.2911 420.916 31.668C419.878 32.0446 419.174 32.9705 418.852 34.1186C418.531 35.2676 418.584 36.6609 419.073 38.0314C419.563 39.4019 420.404 40.51 421.379 41.189C422.355 41.8678 423.485 42.1283 424.523 41.7511Z" fill="#654D41" stroke="#654D41" stroke-width="0.5"/>
</g>
<defs>
<clipPath id="clip0_1102:554">
<rect width="37.2921" height="30.3899" fill="white" transform="matrix(0.821971 -0.569529 0.572132 0.820161 398.992 45.3796)"/>
</clipPath>
</defs>
</svg>
